<svg width="1024" height="768" 
    xmlns="http://www.w3.org/2000/svg">
    <g>
        <title>Layer 1</title>
        <metadata transform="matrix(0.014108773832838262,0,0,0.014108773832838262,0,0) " id="svg_31">image/svg+xml</metadata>
        <defs>
            <clipPath clipPathUnits="userSpaceOnUse" id="svg_21">
                <path d="m14995.508109,-9743.163858l841.89,0l0,-595.276l-841.89,0l0,595.276z" id="svg_30"/>
            </clipPath>
        </defs>
        <g stroke="null" id="svg_33">
            <g stroke="null" id="svg_18" transform="matrix(7.656774796129861,0,0,-7.656774796129861,-117526.15006836106,-76495.8715213751) ">
                <g stroke="null" id="svg_28">
                    <path fill="#000" fill-rule="nonzero" d="m15396.953422,-10086.370354l-9.297,2.187l20.877,88.763l9.296,-2.187l-20.876,-88.763z" id="svg_29"/>
                </g>
                <g stroke="null" id="svg_26">
                    <path fill="#000" fill-rule="nonzero" d="m15444.935813,-10021.158363l-6.753,6.562l-26.897,-26.136l0.072,-0.07l-0.072,-0.069l26.897,-26.137l6.753,6.563l-20.215,19.643l20.215,19.644z" id="svg_27"/>
                </g>
                <g stroke="null" id="svg_19">
                    <g stroke="null" id="svg_20" clip-path="url(#svg_21)">
                        <g stroke="null" id="svg_24">
                            <path fill="#000" fill-rule="nonzero" d="m15377.391899,-10003.36686l-4.843,0c-4.666,0 -5.282,-2.729 -5.282,-7.748l0,-17.433c0,-7.219 -6.163,-11.445 -8.452,-12.765c3.697,-0.969 8.452,-4.843 8.452,-11.71l0,-17.52c0,-5.283 0.616,-7.748 5.282,-7.748l4.843,0l0,-7.22l-8.893,0c-6.251,0 -10.653,3.698 -10.653,11.71l0,17.52c0,6.339 -4.138,8.981 -7.924,10.301l0,9.509c3.081,0.44 7.924,3.786 7.924,10.829l0,17.873c0,8.012 4.402,11.533 10.653,11.533l8.893,0l0,-7.131z" id="svg_25"/>
                        </g>
                        <g stroke="null" id="svg_22">
                            <path fill="#000" fill-rule="nonzero" d="m15455.210197,-10078.380043l4.843,0c4.666,0 5.282,2.729 5.282,7.748l0,17.433c0,7.219 6.163,11.445 8.452,12.765c-3.697,0.969 -8.452,4.843 -8.452,11.71l0,17.521c0,5.283 -0.616,7.748 -5.282,7.748l-4.843,0l0,7.22l8.893,0c6.251,0 10.653,-3.699 10.653,-11.71l0,-17.521c0,-6.339 4.138,-8.98 7.924,-10.301l0,-9.509c-3.081,-0.44 -7.924,-3.786 -7.924,-10.829l0,-17.873c0,-8.011 -4.402,-11.533 -10.653,-11.533l-8.893,0l0,7.131z" id="svg_23"/>
                        </g>
                    </g>
                </g>
            </g>
        </g>
    </g>
</svg>